<svg width="500" height="500" viewBox="0 0 500 500" fill="none" xmlns="http://www.w3.org/2000/svg">
<g clip-path="url(#clip0)">
<path d="M500 382.4H0V382.65H500V382.4Z" fill="#EBEBEB"/>
<path d="M237 337.8H43.91C42.3973 337.797 40.9475 337.195 39.8788 336.124C38.8102 335.053 38.21 333.603 38.21 332.09V60.66C38.2231 59.156 38.8292 57.718 39.8964 56.6582C40.9637 55.5985 42.4059 55.0026 43.91 55H237C238.514 55 239.967 55.6016 241.038 56.6724C242.108 57.7433 242.71 59.1956 242.71 60.71V332.09C242.71 333.604 242.108 335.057 241.038 336.128C239.967 337.198 238.514 337.8 237 337.8ZM43.91 55.2C42.4636 55.2026 41.0774 55.7791 40.0556 56.8027C39.0338 57.8264 38.46 59.2136 38.46 60.66V332.09C38.46 333.536 39.0338 334.924 40.0556 335.947C41.0774 336.971 42.4636 337.547 43.91 337.55H237C238.447 337.547 239.834 336.971 240.858 335.948C241.881 334.924 242.457 333.537 242.46 332.09V60.66C242.457 59.2127 241.881 57.8255 240.858 56.8021C239.834 55.7787 238.447 55.2026 237 55.2H43.91Z" fill="#EBEBEB"/>
<path d="M453.31 337.8H260.21C258.696 337.797 257.246 337.195 256.175 336.125C255.105 335.054 254.503 333.604 254.5 332.09V60.66C254.516 59.1551 255.124 57.7171 256.193 56.6576C257.262 55.5981 258.705 55.0025 260.21 55H453.31C454.812 55.0052 456.252 55.6022 457.317 56.6617C458.382 57.7212 458.987 59.1578 459 60.66V332.09C459 333.601 458.401 335.05 457.335 336.121C456.268 337.191 454.821 337.795 453.31 337.8ZM260.21 55.2C258.763 55.2026 257.375 55.7787 256.352 56.8021C255.329 57.8255 254.753 59.2127 254.75 60.66V332.09C254.753 333.537 255.329 334.924 256.352 335.948C257.375 336.971 258.763 337.547 260.21 337.55H453.31C454.757 337.547 456.145 336.971 457.168 335.948C458.191 334.924 458.767 333.537 458.77 332.09V60.66C458.767 59.2127 458.191 57.8255 457.168 56.8021C456.145 55.7787 454.757 55.2026 453.31 55.2H260.21Z" fill="#EBEBEB"/>
<path d="M200.44 391.92H174.44V392.17H200.44V391.92Z" fill="#EBEBEB"/>
<path d="M106.56 389.21H52.46V389.46H106.56V389.21Z" fill="#EBEBEB"/>
<path d="M173.44 401.21H147.12V401.46H173.44V401.21Z" fill="#EBEBEB"/>
<path d="M297.06 399.53H258.23V399.78H297.06V399.53Z" fill="#EBEBEB"/>
<path d="M316.65 399.53H305.96V399.78H316.65V399.53Z" fill="#EBEBEB"/>
<path d="M449.91 395.31H395.35V395.56H449.91V395.31Z" fill="#EBEBEB"/>
<path d="M115.64 158.67H189.64C191.144 158.67 192.586 159.267 193.649 160.331C194.713 161.394 195.31 162.836 195.31 164.34V382.4H110V164.33C110.003 162.833 110.597 161.398 111.654 160.338C112.71 159.277 114.143 158.678 115.64 158.67Z" fill="#F5F5F5"/>
<path d="M128.06 171.89H117.06V196.38H128.06V171.89Z" fill="#EBEBEB"/>
<path d="M188.22 171.89H177.22V196.38H188.22V171.89Z" fill="#EBEBEB"/>
<path d="M148.11 171.89H137.11V196.38H148.11V171.89Z" fill="#EBEBEB"/>
<path d="M168.17 171.89H157.17V196.38H168.17V171.89Z" fill="#EBEBEB"/>
<path d="M128.06 210.55H117.06V235.04H128.06V210.55Z" fill="#EBEBEB"/>
<path d="M188.22 210.55H177.22V235.04H188.22V210.55Z" fill="#EBEBEB"/>
<path d="M148.11 210.55H137.11V235.04H148.11V210.55Z" fill="#EBEBEB"/>
<path d="M168.17 210.55H157.17V235.04H168.17V210.55Z" fill="#EBEBEB"/>
<path d="M128.06 249.21H117.06V273.7H128.06V249.21Z" fill="#EBEBEB"/>
<path d="M188.22 249.21H177.22V273.7H188.22V249.21Z" fill="#EBEBEB"/>
<path d="M148.11 249.21H137.11V273.7H148.11V249.21Z" fill="#EBEBEB"/>
<path d="M168.17 249.21H157.17V273.7H168.17V249.21Z" fill="#EBEBEB"/>
<path d="M128.06 287.87H117.06V312.36H128.06V287.87Z" fill="#EBEBEB"/>
<path d="M188.22 287.87H177.22V312.36H188.22V287.87Z" fill="#EBEBEB"/>
<path d="M148.11 287.87H137.11V312.36H148.11V287.87Z" fill="#EBEBEB"/>
<path d="M168.17 287.87H157.17V312.36H168.17V287.87Z" fill="#EBEBEB"/>
<path d="M128.06 326.53H117.06V351.02H128.06V326.53Z" fill="#EBEBEB"/>
<path d="M188.22 326.53H177.22V351.02H188.22V326.53Z" fill="#EBEBEB"/>
<path d="M148.11 326.53H137.11V351.02H148.11V326.53Z" fill="#EBEBEB"/>
<path d="M168.17 326.53H157.17V351.02H168.17V326.53Z" fill="#EBEBEB"/>
<path d="M378 179H431C431.605 179 432.205 179.119 432.764 179.351C433.323 179.583 433.832 179.922 434.26 180.35C434.688 180.778 435.027 181.287 435.259 181.846C435.491 182.405 435.61 183.005 435.61 183.61V382.4H373.44V183.62C373.437 182.404 373.915 181.237 374.769 180.371C375.623 179.506 376.784 179.013 378 179Z" fill="#F5F5F5"/>
<path d="M391.32 191.02H381.32V213.28H391.32V191.02Z" fill="#EBEBEB"/>
<path d="M409.55 191.02H399.55V213.28H409.55V191.02Z" fill="#EBEBEB"/>
<path d="M427.78 191.02H417.78V213.28H427.78V191.02Z" fill="#EBEBEB"/>
<path d="M391.32 226.17H381.32V248.43H391.32V226.17Z" fill="#EBEBEB"/>
<path d="M409.55 226.17H399.55V248.43H409.55V226.17Z" fill="#EBEBEB"/>
<path d="M427.78 226.17H417.78V248.43H427.78V226.17Z" fill="#EBEBEB"/>
<path d="M391.32 261.32H381.32V283.58H391.32V261.32Z" fill="#EBEBEB"/>
<path d="M409.55 261.32H399.55V283.58H409.55V261.32Z" fill="#EBEBEB"/>
<path d="M427.78 261.32H417.78V283.58H427.78V261.32Z" fill="#EBEBEB"/>
<path d="M391.32 296.46H381.32V318.72H391.32V296.46Z" fill="#EBEBEB"/>
<path d="M409.55 296.46H399.55V318.72H409.55V296.46Z" fill="#EBEBEB"/>
<path d="M427.78 296.46H417.78V318.72H427.78V296.46Z" fill="#EBEBEB"/>
<path d="M391.32 331.61H381.32V353.87H391.32V331.61Z" fill="#EBEBEB"/>
<path d="M409.55 331.61H399.55V353.87H409.55V331.61Z" fill="#EBEBEB"/>
<path d="M427.78 331.61H417.78V353.87H427.78V331.61Z" fill="#EBEBEB"/>
<path d="M256.59 122.11H342.68C344.428 122.11 346.104 122.804 347.34 124.04C348.576 125.276 349.27 126.952 349.27 128.7V382.4H250V128.7C250 126.952 250.694 125.276 251.93 124.04C253.166 122.804 254.842 122.11 256.59 122.11Z" fill="#F5F5F5"/>
<path d="M271.04 137.49H258.24V165.98H271.04V137.49Z" fill="#EBEBEB"/>
<path d="M341.03 137.49H328.23V165.98H341.03V137.49Z" fill="#EBEBEB"/>
<path d="M294.37 137.49H281.57V165.98H294.37V137.49Z" fill="#EBEBEB"/>
<path d="M317.7 137.49H304.9V165.98H317.7V137.49Z" fill="#EBEBEB"/>
<path d="M271.04 182.47H258.24V210.96H271.04V182.47Z" fill="#EBEBEB"/>
<path d="M341.03 182.47H328.23V210.96H341.03V182.47Z" fill="#EBEBEB"/>
<path d="M294.37 182.47H281.57V210.96H294.37V182.47Z" fill="#EBEBEB"/>
<path d="M317.7 182.47H304.9V210.96H317.7V182.47Z" fill="#EBEBEB"/>
<path d="M271.04 227.45H258.24V255.94H271.04V227.45Z" fill="#EBEBEB"/>
<path d="M341.03 227.45H328.23V255.94H341.03V227.45Z" fill="#EBEBEB"/>
<path d="M294.37 227.45H281.57V255.94H294.37V227.45Z" fill="#EBEBEB"/>
<path d="M317.7 227.45H304.9V255.94H317.7V227.45Z" fill="#EBEBEB"/>
<path d="M271.04 272.43H258.24V300.92H271.04V272.43Z" fill="#EBEBEB"/>
<path d="M341.03 272.43H328.23V300.92H341.03V272.43Z" fill="#EBEBEB"/>
<path d="M294.37 272.43H281.57V300.92H294.37V272.43Z" fill="#EBEBEB"/>
<path d="M317.7 272.43H304.9V300.92H317.7V272.43Z" fill="#EBEBEB"/>
<path d="M271.04 317.4H258.24V345.89H271.04V317.4Z" fill="#EBEBEB"/>
<path d="M341.03 317.4H328.23V345.89H341.03V317.4Z" fill="#EBEBEB"/>
<path d="M294.37 317.4H281.57V345.89H294.37V317.4Z" fill="#EBEBEB"/>
<path d="M317.7 317.4H304.9V345.89H317.7V317.4Z" fill="#EBEBEB"/>
<path d="M250 215.33H195.31V382.4H250V215.33Z" fill="#E6E6E6"/>
<path d="M373.44 233.22H349.28V382.4H373.44V233.22Z" fill="#E6E6E6"/>
<path d="M109.97 382.4H62.11V312.65L109.97 296.46V382.4Z" fill="#E6E6E6"/>
<path d="M421 94.38C428.83 87.85 444.76 75.11 431.06 73.29C417.9 71.54 398.51 79.24 392.32 86C392.32 79.53 389.27 73.37 377.65 68.39C359.77 60.71 357 88.62 357.94 93.74C350.75 90.29 328.05 90.93 343.7 100.66H423.14C423.14 100.66 439.54 90.41 421 94.38Z" fill="#F5F5F5"/>
<path d="M62.6 128C62.54 124.28 62.14 117 68.72 116C75.04 115 79.33 119.39 78.61 123.24C81.77 119.55 86.03 116.05 93.29 113.24C104.48 108.86 92.03 124.76 89.13 127.68C93.8 125.68 102.92 126.07 91.67 131.61H58.67C58.67 131.61 56.86 125.73 62.6 128Z" fill="#FAFAFA"/>
<path d="M201.07 83.86H94.77C94.77 83.86 100.93 76.38 110.55 78.74C106.02 72.97 103.61 51.34 118.77 48.64C126.48 47.27 135.58 61.29 135.77 68.64C139.57 51.05 150.07 28.7 166.19 33.08C182.31 37.46 169.82 69.38 169.82 69.38C169.82 69.38 185.31 46.82 198.17 56.83C205.83 62.83 191.45 76.51 191.45 76.51C191.45 76.51 209.06 76.38 201.07 83.86Z" fill="#F5F5F5"/>
<path d="M250 427.56C357.082 427.56 443.89 422.492 443.89 416.24C443.89 409.988 357.082 404.92 250 404.92C142.917 404.92 56.11 409.988 56.11 416.24C56.11 422.492 142.917 427.56 250 427.56Z" fill="#F5F5F5"/>
<path d="M198.19 339.63C192.599 339.751 187.277 342.057 183.365 346.054C179.453 350.052 177.263 355.422 177.263 361.015C177.263 366.608 179.453 371.978 183.365 375.976C187.277 379.973 192.599 382.279 198.19 382.4H202.47V339.63H198.19Z" fill="#263238"/>
<path d="M354 339.63C351.153 339.568 348.322 340.076 345.674 341.123C343.025 342.17 340.612 343.735 338.577 345.727C336.542 347.719 334.924 350.097 333.82 352.723C332.716 355.348 332.148 358.167 332.148 361.015C332.148 363.863 332.716 366.682 333.82 369.307C334.924 371.932 336.542 374.311 338.577 376.303C340.612 378.294 343.025 379.86 345.674 380.907C348.322 381.954 351.153 382.462 354 382.4H358.27V339.63H354Z" fill="#263238"/>
<path d="M283.4 382.39C295.208 382.39 304.78 372.818 304.78 361.01C304.78 349.202 295.208 339.63 283.4 339.63C271.592 339.63 262.02 349.202 262.02 361.01C262.02 372.818 271.592 382.39 283.4 382.39Z" fill="#263238"/>
<path d="M127.58 382.39C139.388 382.39 148.96 372.818 148.96 361.01C148.96 349.202 139.388 339.63 127.58 339.63C115.772 339.63 106.2 349.202 106.2 361.01C106.2 372.818 115.772 382.39 127.58 382.39Z" fill="#263238"/>
<path d="M306.62 247.66H225.49V350.74H306.62V247.66Z" fill="#006763"/>
<path opacity="0.2" d="M306.62 247.66H225.49V350.74H306.62V247.66Z" fill="black"/>
<path d="M388.514 273.293L387.752 273.941L390.982 277.732L391.743 277.084L388.514 273.293Z" fill="#006763"/>
<path d="M375.353 257.824L374.591 258.473L384.652 270.277L385.413 269.629L375.353 257.824Z" fill="#006763"/>
<path d="M306.62 350.73H407.38V306C407.382 302.679 406.197 299.466 404.04 296.94L372.69 260.1C369.367 256.199 365.236 253.066 360.582 250.918C355.929 248.77 350.865 247.659 345.74 247.66H306.62V350.73Z" fill="#006763"/>
<path d="M323.13 301.75V263.85C323.13 263.034 323.291 262.225 323.604 261.471C323.916 260.717 324.375 260.032 324.953 259.455C325.53 258.879 326.216 258.421 326.971 258.11C327.725 257.798 328.534 257.639 329.35 257.64H339C344.051 257.64 349.041 258.736 353.627 260.853C358.212 262.97 362.284 266.056 365.56 269.9L389.27 297.72C390.223 298.835 390.747 300.253 390.75 301.72C390.75 303.368 390.096 304.948 388.932 306.115C387.768 307.281 386.188 307.937 384.54 307.94H329.35C327.706 307.94 326.128 307.289 324.962 306.129C323.797 304.969 323.138 303.394 323.13 301.75Z" fill="white"/>
<path d="M407.38 338.55H394.94C394.268 338.55 393.607 338.374 393.023 338.04C392.439 337.705 391.953 337.224 391.613 336.644C391.272 336.064 391.089 335.405 391.082 334.733C391.074 334.06 391.243 333.397 391.57 332.81L393.67 329.05C394.002 328.446 394.49 327.942 395.082 327.591C395.675 327.239 396.351 327.052 397.04 327.05H407.38V338.55Z" fill="white"/>
<path d="M288.71 230.34H92.6201V350.73H288.71V230.34Z" fill="#006763"/>
<path opacity="0.6" d="M288.71 230.34H92.6201V350.73H288.71V230.34Z" fill="white"/>
<path opacity="0.5" d="M179.09 332.38H145.72V339.63H179.09V332.38Z" fill="#006763"/>
<path opacity="0.5" d="M101.78 332.38H92.6201V339.63H101.78V332.38Z" fill="#006763"/>
<path opacity="0.4" d="M160.36 230.34H92.6201V350.73H160.36V230.34Z" fill="#006763"/>
<path opacity="0.4" d="M123.06 230.34H121.97V350.73H123.06V230.34Z" fill="#006763"/>
<path d="M408.36 350.73H91.64C90.7343 350.73 90 351.464 90 352.37V357.44C90 358.346 90.7343 359.08 91.64 359.08H408.36C409.266 359.08 410 358.346 410 357.44V352.37C410 351.464 409.266 350.73 408.36 350.73Z" fill="#263238"/>
<path d="M358.29 382.39C370.098 382.39 379.67 372.818 379.67 361.01C379.67 349.202 370.098 339.63 358.29 339.63C346.482 339.63 336.91 349.202 336.91 361.01C336.91 372.818 346.482 382.39 358.29 382.39Z" fill="#263238"/>
<path d="M358.29 374.77C365.89 374.77 372.05 368.609 372.05 361.01C372.05 353.411 365.89 347.25 358.29 347.25C350.691 347.25 344.53 353.411 344.53 361.01C344.53 368.609 350.691 374.77 358.29 374.77Z" fill="white"/>
<path d="M202.47 382.39C214.278 382.39 223.85 372.818 223.85 361.01C223.85 349.202 214.278 339.63 202.47 339.63C190.662 339.63 181.09 349.202 181.09 361.01C181.09 372.818 190.662 382.39 202.47 382.39Z" fill="#263238"/>
<path d="M202.47 374.77C210.07 374.77 216.23 368.609 216.23 361.01C216.23 353.411 210.07 347.25 202.47 347.25C194.871 347.25 188.71 353.411 188.71 361.01C188.71 368.609 194.871 374.77 202.47 374.77Z" fill="white"/>
<path d="M230.34 407.53L221.84 407.4L219.53 387.69L228.02 387.83L230.34 407.53Z" fill="#006763"/>
<path d="M221.62 406.42L230.88 406.56C231.044 406.559 231.202 406.619 231.324 406.728C231.446 406.837 231.523 406.987 231.54 407.15L232.35 414.73C232.365 414.922 232.34 415.115 232.277 415.297C232.213 415.478 232.112 415.645 231.98 415.785C231.848 415.926 231.688 416.037 231.511 416.112C231.334 416.186 231.143 416.223 230.95 416.22C227.62 416.11 222.81 415.84 218.61 415.78C213.7 415.7 214.18 415.9 208.42 415.78C204.94 415.73 204.42 412.18 205.88 411.89C212.68 410.54 213.36 410.47 219.5 407.02C220.141 406.637 220.873 406.43 221.62 406.42Z" fill="#263238"/>
<path d="M213.32 153.51C210.54 159.45 207.56 165.06 204.25 170.66C202.59 173.44 200.88 176.21 199.03 178.93C198.13 180.29 197.16 181.64 196.2 182.99C195.24 184.34 194.2 185.67 193.09 186.99L192.27 187.99C191.854 188.504 191.407 188.992 190.93 189.45C190.616 189.758 190.282 190.046 189.93 190.31C189.545 190.605 189.137 190.869 188.71 191.1C187.776 191.619 186.762 191.98 185.71 192.17C183.797 192.486 181.834 192.25 180.05 191.49C178.823 190.957 177.675 190.257 176.64 189.41C175.079 188.121 173.688 186.639 172.5 185C171.45 183.579 170.475 182.104 169.58 180.58C167.914 177.691 166.428 174.702 165.13 171.63C163.845 168.615 162.72 165.534 161.76 162.4C161.524 161.593 161.587 160.728 161.936 159.963C162.286 159.198 162.9 158.585 163.664 158.235C164.429 157.885 165.294 157.823 166.102 158.059C166.909 158.295 167.604 158.813 168.06 159.52L168.12 159.61C171.264 164.793 174.689 169.801 178.38 174.61C179.244 175.705 180.165 176.753 181.14 177.75C181.921 178.572 182.79 179.306 183.73 179.94C184.09 180.15 184.38 180.25 184.4 180.21C184.42 180.17 184.04 179.98 183.4 180.05C182.974 180.123 182.566 180.279 182.2 180.51C182.15 180.51 182.1 180.58 182.39 180.18L183.01 179.29C186.347 174.297 189.428 169.137 192.24 163.83C195.16 158.47 198.03 152.91 200.76 147.52V147.42C201.573 145.75 203.016 144.472 204.771 143.866C206.526 143.261 208.45 143.377 210.12 144.19C211.79 145.003 213.068 146.446 213.674 148.201C214.279 149.956 214.163 151.88 213.35 153.55L213.32 153.51Z" fill="#5C9E9B"/>
<path d="M168.39 162L166.11 152.54L157.22 156.37C157.22 156.37 158.01 163.88 164.22 164.81L168.39 162Z" fill="#263238"/>
<path d="M167.92 159.67C167.92 159.67 170.81 163.39 171.52 164.41C170.52 165.41 163.97 168.72 163.45 168.41C162.62 166.04 161.45 162.91 161.45 162.91L167.92 159.67Z" fill="#263238"/>
<path d="M159.46 146.52L156.19 149.66C155.931 149.915 155.747 150.237 155.657 150.589C155.567 150.942 155.575 151.312 155.68 151.66L157.22 156.33L166.11 152.5L162.46 146.85C162.297 146.615 162.085 146.418 161.84 146.271C161.594 146.125 161.32 146.033 161.035 146.002C160.751 145.97 160.463 146 160.191 146.09C159.92 146.179 159.67 146.326 159.46 146.52Z" fill="#263238"/>
<path d="M164.5 157.57C164.19 155.65 166.11 149.63 167.72 148.77C169.33 147.91 168.41 152.06 168.62 153.46C169.2 157.3 169.4 160.96 167.43 160.76C165.46 160.56 165 160.91 164.5 157.57Z" fill="#263238"/>
<path opacity="0.2" d="M219.53 387.7L220.72 397.86L229.22 397.99L228.03 387.83L219.53 387.7Z" fill="black"/>
<path d="M206.45 142.16C222.61 140.16 238.25 142.32 246.77 143.97C247.628 144.138 248.445 144.475 249.171 144.962C249.898 145.448 250.521 146.075 251.003 146.805C251.485 147.534 251.817 148.353 251.98 149.212C252.142 150.071 252.132 150.955 251.95 151.81C245.61 182.11 246.6 212.59 246.07 219.07L200.63 218.34C197.52 181.19 199.48 157.53 200.68 147.88C200.868 146.42 201.537 145.065 202.582 144.029C203.628 142.993 204.989 142.335 206.45 142.16Z" fill="#5C9E9B"/>
<path d="M235.15 120.74C233.71 126.85 232.07 138.11 236.27 142.57C232.77 145.67 228.21 149.21 220.82 148.92C213.43 148.63 214.91 143.67 216.96 141.14C223.96 140 223.96 134.86 222.96 129.96L235.15 120.74Z" fill="#FFB573"/>
<path opacity="0.2" d="M230.17 124.5L222.93 130C223.187 131.137 223.345 132.295 223.4 133.46C226.06 133.28 229.8 130.65 230.19 127.91C230.392 126.782 230.385 125.626 230.17 124.5Z" fill="black"/>
<path d="M237.21 111.47C236.14 119.82 235.95 124.77 231.42 128.76C224.62 134.76 214.51 130.15 213.05 121.63C211.74 113.95 213.7 101.63 222.14 98.85C224.009 98.2467 226 98.1273 227.927 98.5028C229.855 98.8784 231.655 99.7367 233.161 100.997C234.666 102.258 235.828 103.88 236.536 105.712C237.244 107.543 237.476 109.524 237.21 111.47Z" fill="#FFB573"/>
<path d="M237.7 118.72C234.4 120.72 230.63 119.72 230.32 117.62C230.01 115.52 232.46 111.89 233.38 110.12C233.12 107.12 231 106.24 231.38 104.12C228.91 104.35 215.44 104.96 215.76 101.92C216.08 98.88 221.42 95.75 227.76 96.54C234.1 97.33 238.25 100.09 237.65 103.95C241.19 103.38 242.82 109.37 237.7 118.72Z" fill="#263238"/>
<path d="M240.65 120C240.091 120.888 239.361 121.656 238.502 122.261C237.644 122.865 236.675 123.293 235.65 123.52C232.91 124.11 231.65 121.62 232.56 119.12C233.35 116.86 235.73 113.84 238.43 114.37C239.018 114.492 239.566 114.759 240.025 115.146C240.483 115.533 240.839 116.028 241.059 116.586C241.279 117.144 241.357 117.749 241.286 118.345C241.214 118.941 240.996 119.509 240.65 120Z" fill="#FFB573"/>
<path d="M227 302.66C226.66 259.94 236.11 218.91 236.11 218.91L200.69 218.34C200.69 218.34 204.76 280.04 206.18 305.89C207.65 332.76 217.36 395.89 217.36 395.89L231.74 396.1C231.74 396.1 229 336.38 227 302.66Z" fill="#006763"/>
<path opacity="0.4" d="M227 302.66C226.66 259.94 236.11 218.91 236.11 218.91L200.69 218.34C200.69 218.34 204.76 280.04 206.18 305.89C207.65 332.76 217.36 395.89 217.36 395.89L231.74 396.1C231.74 396.1 229 336.38 227 302.66Z" fill="black"/>
<path opacity="0.2" d="M228.38 242.42C218.28 256.24 222.82 282.24 226.96 300.62C227.125 280.355 228.846 260.132 232.11 240.13L228.38 242.42Z" fill="black"/>
<path d="M215.44 390.29L216.37 396.15L232.27 396.42L233.17 390.88L215.44 390.29Z" fill="#263238"/>
<path d="M226 112.87C226 113.55 225.56 114.08 225.11 114.04C224.66 114 224.34 113.43 224.39 112.75C224.44 112.07 224.83 111.54 225.28 111.57C225.73 111.6 226.08 112.18 226 112.87Z" fill="#263238"/>
<path d="M217.19 111.88C217.19 112.57 216.75 113.09 216.3 113.06C215.85 113.03 215.53 112.44 215.58 111.76C215.63 111.08 216.02 110.55 216.47 110.58C216.92 110.61 217.24 111.2 217.19 111.88Z" fill="#263238"/>
<path d="M219 112.43C218.051 114.458 216.822 116.343 215.35 118.03C215.795 118.398 216.313 118.665 216.871 118.814C217.428 118.962 218.012 118.988 218.58 118.89L219 112.43Z" fill="#ED893E"/>
<path d="M221.36 121.31C222.129 121.272 222.882 121.075 223.57 120.731C224.259 120.386 224.869 119.903 225.36 119.31C225.392 119.268 225.406 119.214 225.398 119.162C225.391 119.109 225.362 119.062 225.32 119.03C225.278 118.998 225.224 118.984 225.172 118.992C225.119 119 225.072 119.028 225.04 119.07C224.477 119.707 223.771 120.2 222.98 120.51C222.189 120.819 221.335 120.936 220.49 120.85C220.459 120.843 220.428 120.843 220.397 120.85C220.366 120.858 220.338 120.871 220.313 120.891C220.289 120.911 220.269 120.936 220.255 120.964C220.242 120.992 220.234 121.024 220.234 121.055C220.234 121.086 220.242 121.117 220.255 121.146C220.269 121.174 220.289 121.199 220.313 121.219C220.338 121.238 220.366 121.252 220.397 121.26C220.428 121.267 220.459 121.267 220.49 121.26C220.779 121.296 221.069 121.312 221.36 121.31Z" fill="#263238"/>
<path d="M227.44 110.58C227.508 110.579 227.574 110.558 227.63 110.52C227.674 110.491 227.713 110.453 227.742 110.409C227.772 110.365 227.792 110.315 227.803 110.263C227.813 110.211 227.813 110.157 227.802 110.105C227.791 110.053 227.77 110.004 227.74 109.96C227.404 109.413 226.942 108.955 226.392 108.624C225.842 108.294 225.221 108.1 224.58 108.06C224.474 108.06 224.372 108.102 224.297 108.177C224.222 108.252 224.18 108.354 224.18 108.46C224.18 108.569 224.223 108.673 224.3 108.75C224.377 108.827 224.481 108.87 224.59 108.87C225.095 108.912 225.582 109.073 226.013 109.338C226.444 109.604 226.806 109.968 227.07 110.4C227.11 110.461 227.165 110.51 227.23 110.541C227.295 110.573 227.368 110.586 227.44 110.58Z" fill="#263238"/>
<path d="M213.4 108.71C213.465 108.719 213.53 108.712 213.592 108.69C213.653 108.667 213.707 108.629 213.75 108.58C214.068 108.188 214.476 107.878 214.939 107.677C215.402 107.475 215.906 107.387 216.41 107.42C216.516 107.431 216.622 107.401 216.706 107.336C216.79 107.271 216.845 107.175 216.86 107.07C216.867 107.017 216.863 106.964 216.85 106.913C216.836 106.862 216.812 106.814 216.779 106.772C216.747 106.73 216.706 106.695 216.66 106.669C216.614 106.643 216.563 106.626 216.51 106.62C215.875 106.573 215.238 106.678 214.652 106.927C214.066 107.176 213.547 107.561 213.14 108.05C213.073 108.131 213.041 108.235 213.05 108.34C213.059 108.445 213.11 108.542 213.19 108.61C213.247 108.666 213.321 108.702 213.4 108.71Z" fill="#263238"/>
<path d="M275.36 407.53L266.85 407.4L263.35 387.69L271.86 387.83L275.36 407.53Z" fill="#006763"/>
<path d="M266.39 406.42L275.65 406.56C275.815 406.561 275.975 406.621 276.1 406.729C276.224 406.837 276.306 406.987 276.33 407.15L277.4 414.73C277.425 414.919 277.408 415.111 277.352 415.292C277.295 415.474 277.2 415.641 277.073 415.783C276.945 415.925 276.789 416.037 276.614 416.112C276.439 416.188 276.25 416.224 276.06 416.22C272.72 416.11 271.67 415.84 267.47 415.78C262.55 415.7 264.83 415.9 259.06 415.78C255.58 415.73 254.9 412.2 256.38 411.89C261.06 410.89 262.23 409.02 264.29 407.02C264.885 406.554 265.639 406.339 266.39 406.42Z" fill="#263238"/>
<path d="M268.16 407.31C266.69 407.36 265.9 407.31 265.52 406.64C265.14 405.97 263.81 404.02 263.91 403.29C264.01 402.56 269.98 401.96 270.57 403.14C271.16 404.32 271.16 407.23 268.16 407.31Z" fill="#263238"/>
<path d="M221.3 407.31C220.38 407.36 219.89 407.31 219.67 406.64C219.213 405.569 218.897 404.443 218.73 403.29C218.8 402.55 222.55 401.96 222.9 403.14C223.25 404.32 223.17 407.23 221.3 407.31Z" fill="#263238"/>
<path opacity="0.2" d="M263.35 387.7L265.16 397.86L273.67 397.99L271.86 387.83L263.35 387.7Z" fill="black"/>
<path d="M260.81 297.61C256.81 259.13 252.11 227.61 246.09 219.07L216 218.59C216 218.59 233.55 278.95 240.31 304.39C247.31 330.84 261.12 393.33 261.12 393.33L274.82 393.52C274.82 393.52 269.15 327.67 260.81 297.61Z" fill="#006763"/>
<path opacity="0.4" d="M260.81 297.61C256.81 259.13 252.11 227.61 246.09 219.07L216 218.59C216 218.59 233.55 278.95 240.31 304.39C247.31 330.84 261.12 393.33 261.12 393.33L274.82 393.52C274.82 393.52 269.15 327.67 260.81 297.61Z" fill="black"/>
<path d="M259.4 390.29L260.51 396.15L275.89 396.42L276.57 390.88L259.4 390.29Z" fill="#263238"/>
<path d="M226.17 155.1C226.08 152.96 223.62 150.1 222.02 148.93C233.87 145.66 236.09 141.36 236.09 141.36C236.942 141.581 237.759 141.918 238.52 142.36C239.22 149 231 153.57 226.17 155.1Z" fill="white"/>
<path d="M219.18 148.76C216.522 149.997 214.341 152.069 212.97 154.66C208.04 145.86 214.97 140.78 214.97 140.78C215.737 140.563 216.541 140.509 217.33 140.62C216 143.56 217.53 147.43 219.18 148.76Z" fill="white"/>
<path d="M289.529 158.931L214.253 170.571L222.689 225.123L297.964 213.483L289.529 158.931Z" fill="#407BFF"/>
<path opacity="0.9" d="M289.529 158.931L214.253 170.571L222.689 225.123L297.964 213.483L289.529 158.931Z" fill="white"/>
<path opacity="0.2" d="M289.535 158.926L250.291 164.994L258.727 219.546L297.97 213.478L289.535 158.926Z" fill="#006763"/>
<path opacity="0.3" d="M234.667 207.902L225.219 209.363L226.644 218.573L236.091 217.113L234.667 207.902Z" fill="#006763"/>
<path opacity="0.3" d="M232.901 196.475L223.453 197.936L224.878 207.147L234.325 205.686L232.901 196.475Z" fill="#006763"/>
<path opacity="0.5" d="M238.517 166.823L225.195 168.883L225.906 173.478L239.228 171.418L238.517 166.823Z" fill="#5C9E9B"/>
<path opacity="0.5" d="M280.185 160.369L270.826 161.816L271.537 166.412L280.896 164.964L280.185 160.369Z" fill="#5C9E9B"/>
<path d="M249.23 145C255 147.757 260.565 150.925 265.88 154.48C268.671 156.309 271.343 158.313 273.88 160.48C275.27 161.682 276.58 162.975 277.8 164.35C278.499 165.16 279.144 166.015 279.73 166.91C280.487 168.046 281.082 169.281 281.5 170.58C281.786 171.461 281.954 172.375 282 173.3C282.014 173.46 282.014 173.62 282 173.78V174.12V174.81L281.95 176.19L281.83 177.48C281.75 178.34 281.66 179.2 281.52 180.01C281.38 180.82 281.29 181.66 281.13 182.45C280.6 185.68 279.82 188.75 279.04 191.81C277.414 197.873 275.41 203.828 273.04 209.64C272.723 210.425 272.131 211.067 271.376 211.448C270.62 211.829 269.751 211.923 268.932 211.711C268.112 211.5 267.398 210.997 266.921 210.298C266.444 209.599 266.238 208.75 266.34 207.91V207.83C267.05 201.83 267.92 195.77 268.55 189.83C268.9 186.83 269.17 183.9 269.35 181.03C269.41 180.31 269.41 179.62 269.45 178.91C269.49 178.2 269.45 177.52 269.45 176.85V175.85V174.93V174.47V174.24C269.45 174.24 269.45 174.01 269.45 174.14C269.442 174.3 269.442 174.46 269.45 174.62C269.45 174.73 269.34 174.51 269.1 174.24C268.79 173.884 268.456 173.55 268.1 173.24C267.221 172.383 266.289 171.581 265.31 170.84C263.19 169.23 260.81 167.65 258.36 166.14C253.45 163.14 248.17 160.26 243.02 157.53H242.95C241.351 156.663 240.152 155.207 239.608 153.471C239.064 151.735 239.217 149.855 240.035 148.23C240.852 146.605 242.271 145.363 243.989 144.765C245.707 144.168 247.591 144.263 249.24 145.03L249.23 145Z" fill="#5C9E9B"/>
<path d="M267.07 206.31L261.97 213.23L271.65 216.77C271.65 216.77 275.51 209.94 272.21 207.31L267.07 206.31Z" fill="#263238"/>
<path d="M263.25 222.07L266.85 222.74C267.544 222.863 268.258 222.738 268.869 222.387C269.48 222.036 269.947 221.481 270.19 220.82L271.65 216.82L262 213.23L260.9 218.54C260.744 219.32 260.904 220.129 261.344 220.791C261.785 221.453 262.471 221.913 263.25 222.07Z" fill="#263238"/>
<path d="M266.23 208.23C266.23 208.23 266.41 203.52 266.53 202.29C267.94 202.2 275.08 203.85 275.26 204.43C274.38 206.79 273.26 209.93 273.26 209.93L266.23 208.23Z" fill="#263238"/>
<path d="M241.81 110C236.98 109.46 217.14 104.63 215.3 102.72C215.17 99.03 217.3 95.3 218.61 94.46C222.26 92.06 230.29 91.97 232.84 92.69C235.39 93.41 242.37 96.96 243.53 100.38C244.43 103.09 241.81 110 241.81 110Z" fill="#006763"/>
<path d="M221.78 101.57C215.69 100.62 209.9 101.04 207.85 104.12C205.56 107.56 213.1 102.45 217.6 104.65C225.13 108.35 223.34 108.93 234.75 108.65C228.88 105.67 228.84 102.67 221.78 101.57Z" fill="#006763"/>
<path opacity="0.6" d="M221.78 101.57C215.69 100.62 209.9 101.04 207.85 104.12C205.56 107.56 213.1 102.45 217.6 104.65C225.13 108.35 223.34 108.93 234.75 108.65C228.88 105.67 228.84 102.67 221.78 101.57Z" fill="white"/>
</g>
<defs>
<clipPath id="clip0">
<rect width="500" height="500" fill="white"/>
</clipPath>
</defs>
</svg>
