<svg width="500" height="500" viewBox="0 0 500 500" fill="none" xmlns="http://www.w3.org/2000/svg">
<path d="M500 382.4H0V382.65H500V382.4Z" fill="#EBEBEB"/>
<path d="M449.9 398.49H435V398.74H449.9V398.49Z" fill="#EBEBEB"/>
<path d="M331.22 401.21H322.53V401.46H331.22V401.21Z" fill="#EBEBEB"/>
<path d="M430.78 389.21H396.59V389.46H430.78V389.21Z" fill="#EBEBEB"/>
<path d="M109.63 394.37H66.4401V394.62H109.63V394.37Z" fill="#EBEBEB"/>
<path d="M134.11 394.37H118.53V394.62H134.11V394.37Z" fill="#EBEBEB"/>
<path d="M254.76 391.01H161.08V391.26H254.76V391.01Z" fill="#EBEBEB"/>
<path d="M237 337.8H43.9101C42.3974 337.797 40.9476 337.195 39.879 336.124C38.8103 335.053 38.2101 333.603 38.2101 332.09V60.66C38.2233 59.156 38.8293 57.718 39.8965 56.6582C40.9638 55.5985 42.4061 55.0026 43.9101 55H237C238.514 55 239.967 55.6016 241.038 56.6724C242.108 57.7433 242.71 59.1956 242.71 60.71V332.09C242.71 333.604 242.108 335.057 241.038 336.128C239.967 337.198 238.514 337.8 237 337.8ZM43.9101 55.2C42.4637 55.2026 41.0775 55.7791 40.0557 56.8027C39.034 57.8264 38.4601 59.2136 38.4601 60.66V332.09C38.4601 333.536 39.034 334.924 40.0557 335.947C41.0775 336.971 42.4637 337.547 43.9101 337.55H237C238.447 337.547 239.835 336.971 240.858 335.948C241.881 334.924 242.457 333.537 242.46 332.09V60.66C242.457 59.2127 241.881 57.8255 240.858 56.8021C239.835 55.7787 238.447 55.2026 237 55.2H43.9101Z" fill="#EBEBEB"/>
<path d="M453.31 337.8H260.21C258.696 337.797 257.246 337.195 256.175 336.125C255.105 335.054 254.503 333.604 254.5 332.09V60.66C254.516 59.1551 255.124 57.7171 256.193 56.6576C257.262 55.5981 258.705 55.0025 260.21 55H453.31C454.812 55.0052 456.252 55.6022 457.317 56.6617C458.382 57.7212 458.987 59.1578 459 60.66V332.09C459 333.601 458.401 335.05 457.335 336.121C456.268 337.191 454.821 337.795 453.31 337.8ZM260.21 55.2C258.763 55.2026 257.375 55.7787 256.352 56.8021C255.329 57.8255 254.753 59.2127 254.75 60.66V332.09C254.753 333.537 255.329 334.924 256.352 335.948C257.375 336.971 258.763 337.547 260.21 337.55H453.31C454.757 337.547 456.145 336.971 457.168 335.948C458.191 334.924 458.767 333.537 458.77 332.09V60.66C458.767 59.2127 458.191 57.8255 457.168 56.8021C456.145 55.7787 454.757 55.2026 453.31 55.2H260.21Z" fill="#EBEBEB"/>
<path d="M221.5 375.1H229.4V321H221.5V375.1Z" fill="#F0F0F0"/>
<path d="M61.7101 382.4H224.19V375.1H61.7101V382.4Z" fill="#F0F0F0"/>
<path d="M221.5 321H56.49V375.1H221.5V321Z" fill="#F5F5F5"/>
<path d="M210.82 330.42H67.1599V361.32H210.82V330.42Z" fill="#F0F0F0"/>
<path d="M104.05 334.55H173.95C175.259 334.55 176.32 333.489 176.32 332.18V331.74C176.32 330.431 175.259 329.37 173.95 329.37H104.05C102.741 329.37 101.68 330.431 101.68 331.74V332.18C101.68 333.489 102.741 334.55 104.05 334.55Z" fill="#F5F5F5"/>
<path d="M52.87 321H221.5V316.17H52.87V321Z" fill="#F0F0F0"/>
<path d="M233.19 316.17H221.5V321H233.19V316.17Z" fill="#E6E6E6"/>
<path d="M215.47 244.81L426.9 244.81V82.6599L215.47 82.6599L215.47 244.81Z" fill="#E6E6E6"/>
<path d="M195.68 76.35H438.86C439.345 76.35 439.811 76.5428 440.154 76.886C440.497 77.2292 440.69 77.6947 440.69 78.18C440.687 78.6636 440.493 79.1265 440.151 79.4675C439.808 79.8086 439.344 80 438.86 80H195.68C195.439 80.0013 195.2 79.955 194.977 79.8636C194.754 79.7722 194.551 79.6376 194.38 79.4676C194.209 79.2975 194.073 79.0953 193.98 78.8726C193.888 78.65 193.84 78.4112 193.84 78.17C193.841 77.9297 193.89 77.692 193.983 77.4704C194.076 77.2489 194.212 77.0479 194.383 76.8789C194.554 76.7099 194.756 76.5762 194.979 76.4855C195.202 76.3947 195.44 76.3487 195.68 76.35Z" fill="#E6E6E6"/>
<path d="M207.63 244.81L423.24 244.81V82.6599L207.63 82.6599L207.63 244.81Z" fill="#F0F0F0"/>
<path d="M215.47 244.81H426.9V250H210.07L215.47 244.81Z" fill="#E6E6E6"/>
<path d="M194.57 244.81H410.18L404.78 250H189.18L194.57 244.81Z" fill="#F0F0F0"/>
<path d="M412.26 233.84V93.63L218.6 93.63V233.84H412.26Z" fill="#FAFAFA"/>
<path d="M347.64 233.83L283.25 93.63H252.84L317.24 233.83H347.64Z" fill="white"/>
<path d="M310.71 233.83L246.31 93.63H234.46L298.86 233.83H310.71Z" fill="white"/>
<path d="M220 233.84V93.63H218.61V233.84H220Z" fill="#E6E6E6"/>
<g opacity="0.4">
<path opacity="0.4" d="M412.14 206.87H431.02V73.06H412.14V206.87Z" fill="#F0F0F0"/>
<path opacity="0.4" d="M404.78 206.87H419.49V73.06H404.78V206.87Z" fill="#E6E6E6"/>
<path opacity="0.4" d="M393.26 206.87H412.14V73.06H393.26V206.87Z" fill="#F0F0F0"/>
<path opacity="0.4" d="M385.9 206.87H400.61V73.06H385.9V206.87Z" fill="#E6E6E6"/>
<path opacity="0.4" d="M374.37 206.87H393.25V73.06H374.37V206.87Z" fill="#F0F0F0"/>
</g>
<g opacity="0.4">
<path opacity="0.4" d="M225.64 206.87H236.52L236.52 73.06H225.64L225.64 206.87Z" fill="#F0F0F0"/>
<path opacity="0.4" d="M221.39 206.87H229.87L229.87 73.06H221.39L221.39 206.87Z" fill="#E6E6E6"/>
<path opacity="0.4" d="M214.75 206.87H225.63L225.63 73.06H214.75L214.75 206.87Z" fill="#F0F0F0"/>
<path opacity="0.4" d="M210.51 206.87H218.99L218.99 73.06H210.51L210.51 206.87Z" fill="#E6E6E6"/>
<path opacity="0.4" d="M203.87 206.87H214.75L214.75 73.06H203.87L203.87 206.87Z" fill="#F0F0F0"/>
</g>
<path d="M157.2 73.15H70.3301V295.11H157.2V73.15Z" fill="#F5F5F5"/>
<path d="M157.21 295.1H159.59L159.59 73.14H157.21L157.21 295.1Z" fill="#E0E0E0"/>
<path d="M149.15 287.06V81.19H78.3699L78.3699 287.06H149.15Z" fill="white"/>
<path d="M103.29 287.06L126.78 81.19H140.33L116.85 287.06H103.29Z" fill="#FAFAFA"/>
<path d="M91.5499 287.06L115.03 81.19H121.81L98.3299 287.06H91.5499Z" fill="#FAFAFA"/>
<path d="M250 427.56C357.082 427.56 443.89 422.492 443.89 416.24C443.89 409.988 357.082 404.92 250 404.92C142.917 404.92 56.11 409.988 56.11 416.24C56.11 422.492 142.917 427.56 250 427.56Z" fill="#F5F5F5"/>
<path d="M398.05 416.24H281.25C279.623 416.257 278.01 415.936 276.514 415.296C275.017 414.656 273.671 413.711 272.56 412.522C271.449 411.333 270.598 409.926 270.061 408.389C269.523 406.853 269.312 405.222 269.44 403.6L285.74 156.53C286.013 153.126 287.544 149.945 290.034 147.609C292.524 145.272 295.795 143.946 299.21 143.89H416C417.626 143.874 419.238 144.196 420.733 144.837C422.228 145.478 423.573 146.423 424.683 147.612C425.793 148.801 426.643 150.207 427.18 151.743C427.717 153.278 427.928 154.909 427.8 156.53L411.52 403.6C411.247 407.004 409.716 410.184 407.226 412.521C404.736 414.858 401.464 416.184 398.05 416.24Z" fill="#263238"/>
<path d="M422.64 210.33H408.5C408.107 210.334 407.718 210.256 407.357 210.102C406.996 209.947 406.672 209.719 406.404 209.432C406.136 209.145 405.93 208.806 405.8 208.435C405.671 208.065 405.619 207.671 405.65 207.28L407.06 185.88C407.139 185.066 407.515 184.31 408.116 183.757C408.718 183.203 409.503 182.891 410.32 182.88H424.45C424.838 182.877 425.223 182.953 425.58 183.104C425.937 183.256 426.259 183.479 426.527 183.761C426.794 184.042 427.001 184.375 427.134 184.74C427.267 185.105 427.323 185.493 427.3 185.88L425.89 207.28C425.825 208.102 425.456 208.87 424.855 209.434C424.254 209.998 423.464 210.318 422.64 210.33Z" fill="#263238"/>
<path d="M329.78 140.39H324.61V141.39H329.78V140.39Z" fill="#006763"/>
<path d="M318.24 140.39H299.44V141.39H318.24V140.39Z" fill="#006763"/>
<path d="M396.27 416.24H279.47C277.843 416.256 276.231 415.934 274.735 415.293C273.24 414.652 271.894 413.708 270.784 412.519C269.673 411.33 268.822 409.923 268.284 408.388C267.746 406.853 267.534 405.222 267.66 403.6L284 156.53C284.273 153.126 285.804 149.946 288.294 147.609C290.784 145.272 294.055 143.946 297.47 143.89H414.27C415.89 143.884 417.495 144.213 418.981 144.858C420.468 145.504 421.805 146.45 422.907 147.638C424.009 148.826 424.853 150.229 425.386 151.76C425.918 153.29 426.127 154.915 426 156.53L409.74 403.6C409.467 407.004 407.936 410.185 405.446 412.521C402.956 414.858 399.684 416.184 396.27 416.24Z" fill="#006763"/>
<path d="M401.57 387.46H278C277.076 387.47 276.159 387.287 275.309 386.923C274.46 386.56 273.695 386.023 273.064 385.348C272.432 384.672 271.949 383.873 271.643 383.001C271.338 382.128 271.218 381.202 271.29 380.28L285.48 165.18C285.633 163.251 286.498 161.448 287.906 160.122C289.314 158.795 291.165 158.039 293.1 158H416.7C417.624 157.99 418.54 158.173 419.39 158.537C420.24 158.9 421.005 159.437 421.636 160.112C422.267 160.788 422.751 161.587 423.056 162.459C423.362 163.332 423.482 164.258 423.41 165.18L409.22 380.28C409.066 382.214 408.197 384.021 406.782 385.348C405.368 386.676 403.51 387.429 401.57 387.46Z" fill="white"/>
<path d="M378.52 158H353.98L294.53 387.46H319.07L378.52 158Z" fill="#FAFAFA"/>
<path d="M400.14 158H387.87L328.42 387.46H340.69L400.14 158Z" fill="#FAFAFA"/>
<path d="M383.84 316.36L357.16 215.45C356.446 212.767 354.698 210.477 352.299 209.08C349.9 207.684 347.045 207.295 344.36 208L281.24 224.68L272.82 356.54L376.39 329.17C379.072 328.452 381.361 326.702 382.757 324.301C384.153 321.901 384.542 319.046 383.84 316.36Z" fill="#F0F0F0"/>
<path opacity="0.2" d="M344.251 404.544C347.459 401.441 347.705 396.493 344.802 393.492C341.899 390.491 336.946 390.574 333.739 393.677C330.531 396.779 330.285 401.727 333.188 404.728C336.091 407.729 341.044 407.646 344.251 404.544Z" fill="white"/>
<path opacity="0.2" d="M358.63 150.54C358.56 151.411 358.168 152.225 357.53 152.823C356.892 153.42 356.054 153.758 355.18 153.77C354.766 153.771 354.356 153.687 353.976 153.522C353.596 153.357 353.255 153.115 352.973 152.812C352.691 152.508 352.475 152.15 352.339 151.759C352.202 151.368 352.148 150.953 352.18 150.54C352.247 149.668 352.639 148.853 353.278 148.255C353.916 147.657 354.755 147.32 355.63 147.31C356.044 147.309 356.454 147.393 356.834 147.558C357.214 147.723 357.555 147.965 357.837 148.268C358.119 148.572 358.335 148.93 358.471 149.321C358.608 149.712 358.662 150.127 358.63 150.54Z" fill="white"/>
<path opacity="0.2" d="M357.17 150.54C357.135 151.019 356.921 151.468 356.571 151.798C356.221 152.127 355.761 152.314 355.28 152.32C355.051 152.324 354.823 152.279 354.612 152.189C354.401 152.1 354.211 151.967 354.055 151.799C353.898 151.631 353.779 151.432 353.704 151.215C353.629 150.999 353.6 150.769 353.62 150.54C353.655 150.061 353.868 149.612 354.218 149.282C354.568 148.953 355.029 148.766 355.51 148.76C355.739 148.756 355.967 148.801 356.178 148.891C356.389 148.98 356.579 149.114 356.735 149.281C356.892 149.449 357.011 149.648 357.086 149.865C357.161 150.081 357.19 150.311 357.17 150.54Z" fill="white"/>
<path d="M169.32 138.06C173.05 128.89 171.71 117.72 161.13 115.22C158.799 114.619 156.359 114.573 154.006 115.086C151.654 115.598 149.454 116.654 147.584 118.17C145.713 119.686 144.224 121.618 143.235 123.813C142.246 126.009 141.786 128.405 141.89 130.81C142.31 140.81 148.89 149.14 137.36 156.39C125.83 163.64 127.06 185.49 149.36 181.27C171.66 177.05 159.61 165.58 159.61 165.58C159.61 165.58 154.14 170.04 152.38 165.5C150.15 159.62 165 148.79 169.32 138.06Z" fill="#263238"/>
<path d="M130.08 168.14L129.59 168.03C131.08 161.36 133.42 159.64 135.89 157.82C138.36 156 140.7 154.27 142.59 147.71C143.48 144.62 142.92 141.2 142.37 137.9C141.67 133.69 140.95 129.33 143.12 125.43L143.55 125.68C141.47 129.42 142.18 133.68 142.86 137.82C143.42 141.18 144 144.65 143.07 147.82C141.14 154.54 138.62 156.39 136.19 158.19C133.76 159.99 131.53 161.66 130.08 168.14Z" fill="#263238"/>
<path d="M197.72 188.43C197.79 188.77 197.91 189.28 198.02 189.74L198.37 191.15C198.61 192.1 198.88 193.05 199.16 194C199.73 195.89 200.34 197.8 201 199.68C202.32 203.463 203.828 207.178 205.52 210.81L206.78 213.44C206.993 213.91 207.295 214.335 207.67 214.69C208.794 215.594 210.135 216.187 211.56 216.41C215.299 217.014 219.111 217.014 222.85 216.41L224.2 220.66C223.165 221.116 222.107 221.517 221.03 221.86C219.96 222.216 218.871 222.516 217.77 222.76C215.476 223.288 213.122 223.507 210.77 223.41C208.003 223.332 205.312 222.484 203 220.96C201.699 220.058 200.602 218.893 199.78 217.54L199.62 217.29L199.52 217.12L199.32 216.76L198.91 216.06L198.1 214.64C196.007 210.826 194.17 206.877 192.6 202.82C191.84 200.82 191.09 198.73 190.48 196.62C190.18 195.62 189.88 194.51 189.61 193.43C189.34 192.35 189.1 191.33 188.88 190.05L197.72 188.43Z" fill="#FFC3BD"/>
<path d="M190 174.45C200.09 178.95 200 194.07 200 194.07L189.37 200.46C189.37 200.46 181.37 188.62 181.97 183.24C182.56 177.63 184.28 171.92 190 174.45Z" fill="#006763"/>
<path opacity="0.2" d="M191.59 187.35C188.83 184.56 186.4 187.78 184.18 191.35C185.703 194.507 187.436 197.557 189.37 200.48L193.73 197.86C194.59 194.53 194.34 190.15 191.59 187.35Z" fill="black"/>
<path d="M221.8 216.79L228.9 213.25L228.98 222.54C228.98 222.54 223.68 223.46 220.15 219.74L221.8 216.79Z" fill="#FFC3BD"/>
<path d="M236.53 214.9L235.31 221.8L228.98 222.54L228.9 213.25L236.53 214.9Z" fill="#FFC3BD"/>
<path d="M156.81 408.86L165.59 409.7L169.68 389.27L160.9 388.43L156.81 408.86Z" fill="#FFC3BD"/>
<path d="M99.24 384.91L106.38 390.11L118.29 373.21L111.14 368.01L99.24 384.91Z" fill="#FFC3BD"/>
<path d="M109 386.86L103.12 378.81C103.022 378.667 102.875 378.566 102.707 378.525C102.539 378.485 102.362 378.508 102.21 378.59L95.16 382.33C94.9857 382.431 94.8348 382.568 94.7171 382.731C94.5994 382.895 94.5176 383.081 94.477 383.279C94.4364 383.476 94.4379 383.68 94.4815 383.876C94.5251 384.073 94.6098 384.258 94.73 384.42C96.83 387.19 97.98 388.42 100.57 391.97C102.17 394.15 105.37 399.2 107.57 402.21C109.77 405.22 112.86 403.21 112.22 401.76C109.32 395.25 109.22 391.44 109.44 388.39C109.482 387.844 109.326 387.301 109 386.86Z" fill="#263238"/>
<path d="M166.75 407.05H156.21C156.02 407.05 155.836 407.113 155.686 407.229C155.536 407.345 155.428 407.507 155.38 407.69L153.09 416C153.034 416.197 153.024 416.404 153.062 416.605C153.101 416.806 153.185 416.995 153.31 417.157C153.434 417.319 153.595 417.45 153.779 417.539C153.963 417.628 154.165 417.673 154.37 417.67C158.09 417.67 159.85 417.67 164.48 417.67H178.65C182.5 417.67 183.3 413.78 181.71 413.42C174.57 411.84 170.45 409.66 168.24 407.58C167.828 407.221 167.296 407.032 166.75 407.05Z" fill="#263238"/>
<path opacity="0.2" d="M169.68 389.28L167.57 399.81H158.62L160.9 388.44L169.68 389.28Z" fill="black"/>
<path opacity="0.2" d="M111.14 368.01L118.29 373.22L112.15 381.93L105 376.72L111.14 368.01Z" fill="black"/>
<path d="M194.16 182.42C193.54 189.17 191.3 202.42 184.75 228.31L148.81 225.2C150.54 211.71 151.35 202.97 147.97 177.43C147.86 176.586 147.925 175.728 148.16 174.91C148.396 174.092 148.797 173.331 149.339 172.674C149.881 172.018 150.553 171.48 151.311 171.094C152.07 170.708 152.9 170.482 153.75 170.43C156.34 170.29 159.42 170.2 162.51 170.32C167.976 170.402 173.43 170.873 178.83 171.73C182 172.3 185.38 173.12 188.13 173.84C189.987 174.326 191.612 175.455 192.716 177.026C193.82 178.597 194.331 180.508 194.16 182.42Z" fill="#006763"/>
<path opacity="0.2" d="M148.89 184.91C149.35 188.91 149.69 192.48 149.89 195.68C153.2 195.39 155.64 191.76 155.89 184.17C154.65 180.5 151.7 181.83 148.89 184.91Z" fill="black"/>
<path d="M184.75 228.31C184.75 228.31 196.91 282.11 188.75 320.04C183.32 345.44 171.23 396.75 171.23 396.75L155.9 396.36C155.9 396.36 163.22 342.51 166.29 321.36C171.54 285.14 158.39 226.07 158.39 226.07L184.75 228.31Z" fill="#263238"/>
<path opacity="0.2" d="M170.73 239.18L163.06 251.27C165.37 265.605 166.836 280.063 167.45 294.57C178.23 275.27 173.12 249.39 170.73 239.18Z" fill="black"/>
<path d="M173.43 397.55L154.49 397.07L155.59 391.25L174.91 392.16L173.43 397.55Z" fill="#006763"/>
<path d="M176.89 227.74C176.89 227.74 169.76 284.79 154.29 315.94C141.8 341.1 115.67 381.09 115.67 381.09L106.12 373.44C106.12 373.44 122.46 329.21 131.74 312.5C154.51 271.5 135.9 240.25 148.81 225.2L176.89 227.74Z" fill="#263238"/>
<path d="M326.447 176.97L156.47 248.386C151.134 250.628 148.626 256.772 150.868 262.108L191.296 358.33C193.538 363.666 199.681 366.174 205.017 363.932L374.994 292.515C380.33 290.273 382.838 284.13 380.596 278.794L340.168 182.572C337.926 177.236 331.783 174.728 326.447 176.97Z" fill="#006763"/>
<path opacity="0.1" d="M326.447 176.97L156.47 248.386C151.134 250.628 148.626 256.772 150.868 262.108L191.296 358.33C193.538 363.666 199.681 366.174 205.017 363.932L374.994 292.515C380.33 290.273 382.838 284.13 380.596 278.794L340.168 182.572C337.926 177.236 331.783 174.728 326.447 176.97Z" fill="#006763"/>
<path opacity="0.2" d="M203.357 244.103L170.075 258.086C167.509 259.165 166.303 262.119 167.381 264.685L174.396 281.381C175.474 283.948 178.429 285.154 180.995 284.076L214.276 270.092C216.843 269.014 218.049 266.06 216.971 263.493L209.956 246.797C208.878 244.231 205.923 243.025 203.357 244.103Z" fill="white"/>
<path opacity="0.4" d="M226.71 310.102L194.102 323.802C193.139 324.207 192.687 325.315 193.091 326.277L195.567 332.168C195.971 333.13 197.079 333.583 198.041 333.178L230.65 319.478C231.612 319.073 232.064 317.965 231.66 317.003L229.185 311.112C228.781 310.15 227.673 309.697 226.71 310.102Z" fill="white"/>
<path opacity="0.4" d="M269.136 292.281L236.527 305.982C235.565 306.386 235.113 307.494 235.517 308.456L237.992 314.348C238.397 315.31 239.504 315.762 240.467 315.358L273.075 301.657C274.038 301.253 274.49 300.145 274.086 299.183L271.611 293.292C271.206 292.329 270.098 291.877 269.136 292.281Z" fill="white"/>
<path opacity="0.4" d="M311.552 274.461L278.943 288.162C277.981 288.566 277.528 289.674 277.933 290.636L280.408 296.527C280.812 297.49 281.92 297.942 282.882 297.538L315.491 283.837C316.453 283.433 316.906 282.325 316.501 281.362L314.026 275.471C313.622 274.509 312.514 274.057 311.552 274.461Z" fill="white"/>
<path opacity="0.4" d="M353.977 256.64L321.369 270.341C320.406 270.745 319.954 271.853 320.358 272.816L322.833 278.707C323.238 279.669 324.346 280.121 325.308 279.717L357.917 266.016C358.879 265.612 359.331 264.504 358.927 263.542L356.452 257.651C356.047 256.688 354.94 256.236 353.977 256.64Z" fill="white"/>
<g opacity="0.6">
<path opacity="0.6" d="M324.473 223.612C332.052 221.825 336.747 214.232 334.96 206.652C333.172 199.073 325.579 194.378 318 196.165C310.42 197.953 305.725 205.546 307.513 213.125C309.3 220.705 316.893 225.4 324.473 223.612Z" fill="#263238"/>
<path opacity="0.6" d="M315.43 225.493C320.101 219.262 318.837 210.424 312.607 205.753C306.376 201.082 297.538 202.346 292.867 208.576C288.196 214.807 289.46 223.645 295.69 228.316C301.921 232.987 310.759 231.723 315.43 225.493Z" fill="white"/>
</g>
<path d="M116.67 382.15L104.42 372.88L107.43 367.5L120.45 377.6L116.67 382.15Z" fill="#006763"/>
<path d="M148.45 223.05L146.55 226.13C146.4 226.36 146.68 226.65 147.09 226.68L184.79 229.94C185.11 229.94 185.39 229.83 185.43 229.63L186.03 226.44C186.08 226.22 185.81 226.01 185.46 225.98L149.06 222.83C148.948 222.812 148.833 222.823 148.727 222.861C148.62 222.9 148.525 222.965 148.45 223.05Z" fill="#006763"/>
<path opacity="0.5" d="M148.45 223.05L146.55 226.13C146.4 226.36 146.68 226.65 147.09 226.68L184.79 229.94C185.11 229.94 185.39 229.83 185.43 229.63L186.03 226.44C186.08 226.22 185.81 226.01 185.46 225.98L149.06 222.83C148.948 222.812 148.833 222.823 148.727 222.861C148.62 222.9 148.525 222.965 148.45 223.05Z" fill="black"/>
<path d="M153 227.54L152 227.46C151.81 227.46 151.67 227.33 151.69 227.21L152.51 223.07C152.51 222.94 152.71 222.86 152.91 222.88L153.91 222.96C154.11 222.96 154.25 223.09 154.22 223.21L153.4 227.35C153.36 227.47 153.18 227.56 153 227.54Z" fill="#338582"/>
<path d="M182 230.05L181 229.97C180.81 229.97 180.67 229.84 180.69 229.72L181.51 225.58C181.546 225.508 181.605 225.451 181.677 225.416C181.75 225.382 181.832 225.373 181.91 225.39L182.91 225.47C183.11 225.47 183.25 225.6 183.22 225.72L182.4 229.86C182.39 230 182.21 230.07 182 230.05Z" fill="#338582"/>
<path d="M167.5 228.8L166.5 228.71C166.3 228.71 166.16 228.58 166.19 228.46L167.01 224.32C167.01 224.2 167.21 224.11 167.4 224.13L168.4 224.22C168.59 224.22 168.73 224.35 168.71 224.47L167.89 228.61C167.87 228.73 167.7 228.81 167.5 228.8Z" fill="#338582"/>
<path d="M111.24 391.31C111.127 391.329 111.012 391.329 110.9 391.31C109.81 391.09 108.9 389.24 108.42 388.16C108.401 388.132 108.391 388.099 108.391 388.065C108.391 388.031 108.401 387.998 108.42 387.97C108.446 387.95 108.477 387.94 108.51 387.94C108.542 387.94 108.574 387.95 108.6 387.97C108.94 388.09 111.92 389.24 112.15 390.33C112.178 390.448 112.172 390.572 112.133 390.686C112.094 390.801 112.024 390.903 111.93 390.98C111.741 391.161 111.499 391.276 111.24 391.31ZM108.91 388.39C109.59 389.88 110.35 390.83 110.97 390.95C111.11 390.971 111.253 390.957 111.386 390.908C111.519 390.859 111.637 390.777 111.73 390.67C111.78 390.633 111.818 390.582 111.839 390.523C111.861 390.464 111.864 390.401 111.85 390.34C111.71 389.67 109.94 388.81 108.91 388.39Z" fill="#006763"/>
<path d="M111.33 388.53C110.379 388.648 109.415 388.545 108.51 388.23C108.482 388.218 108.459 388.198 108.441 388.174C108.423 388.149 108.413 388.12 108.41 388.09C108.406 388.06 108.411 388.029 108.423 388C108.435 387.972 108.455 387.948 108.48 387.93C108.57 387.87 110.63 386.37 111.87 386.65C112.023 386.679 112.168 386.742 112.294 386.834C112.42 386.925 112.525 387.043 112.6 387.18C112.699 387.305 112.753 387.46 112.753 387.62C112.753 387.78 112.699 387.935 112.6 388.06C112.244 388.36 111.795 388.526 111.33 388.53ZM109 388C110 388.29 111.87 388.31 112.33 387.8C112.41 387.72 112.48 387.59 112.33 387.33C112.281 387.237 112.211 387.156 112.126 387.094C112.041 387.032 111.944 386.989 111.84 386.97C111 386.8 109.56 387.63 109 388Z" fill="#006763"/>
<path d="M171.43 408.75C170.46 408.725 169.496 408.605 168.55 408.39C168.518 408.376 168.491 408.353 168.471 408.324C168.452 408.294 168.442 408.26 168.442 408.225C168.442 408.19 168.452 408.156 168.471 408.126C168.491 408.097 168.518 408.074 168.55 408.06C168.99 407.85 172.81 406.06 173.77 406.74C173.859 406.797 173.93 406.878 173.974 406.973C174.019 407.069 174.034 407.176 174.02 407.28C174.018 407.476 173.969 407.668 173.879 407.842C173.789 408.016 173.659 408.166 173.5 408.28C172.878 408.654 172.152 408.818 171.43 408.75ZM169.15 408.15C170.29 408.36 172.39 408.64 173.25 407.99C173.361 407.902 173.453 407.792 173.519 407.666C173.584 407.54 173.622 407.402 173.63 407.26C173.63 407.12 173.63 407.06 173.54 407.03C173 406.66 170.74 407.45 169.15 408.15Z" fill="#006763"/>
<path d="M168.59 408.39C168.555 408.404 168.515 408.404 168.48 408.39C168.454 408.371 168.434 408.345 168.424 408.314C168.413 408.284 168.412 408.251 168.42 408.22C168.42 408.05 169.32 404.28 171.42 404.52C171.94 404.59 172.08 404.84 172.11 405.05C172.24 406.05 169.83 407.95 168.67 408.42L168.59 408.39ZM171.21 404.82C169.88 404.82 169.11 407.02 168.85 407.9C170.1 407.24 171.85 405.67 171.74 405.06C171.74 405.01 171.74 404.87 171.35 404.83L171.21 404.82Z" fill="#006763"/>
<path d="M152.79 185.09L152.26 185.84L151.68 186.69C151.29 187.27 150.9 187.86 150.53 188.47C149.77 189.67 149.08 190.92 148.38 192.17C146.998 194.684 145.782 197.287 144.74 199.96C143.69 202.618 142.811 205.34 142.11 208.11L141.64 210.11C141.64 210.05 141.58 210.26 141.69 210.64C142.034 211.709 142.536 212.72 143.18 213.64C144.795 215.962 146.609 218.14 148.6 220.15C150.6 222.27 152.82 224.32 155.03 226.36C157.24 228.4 159.56 230.36 161.88 232.29C164.2 234.22 166.57 236.17 168.88 238.05L166.38 241.74C161.023 238.563 155.852 235.084 150.89 231.32C148.39 229.44 145.94 227.46 143.57 225.32C141.085 223.142 138.817 220.727 136.8 218.11C135.591 216.573 134.645 214.846 134 213C133.562 211.715 133.415 210.349 133.57 209V208.72V208.57L133.62 208.27L133.72 207.66L133.93 206.45C134.518 203.229 135.347 200.057 136.41 196.96C137.509 193.878 138.808 190.872 140.3 187.96C141.05 186.5 141.87 185.09 142.75 183.7C143.18 183 143.63 182.31 144.1 181.62L144.84 180.62C145.1 180.27 145.32 179.96 145.67 179.53L152.79 185.09Z" fill="#FFC3BD"/>
<path d="M151.9 171C145.04 172.8 138.42 189.43 138.42 189.43L147.3 197.55C147.3 197.55 161.25 184.83 160.78 179.09C160.39 174.21 157.41 169.54 151.9 171Z" fill="#006763"/>
<path opacity="0.2" d="M162.51 170C161.253 170.257 159.972 170.374 158.69 170.35C158.42 175.29 161.59 180.06 169.38 186.46C171.25 180.63 175.38 179.37 175.38 179.37L162.51 170Z" fill="black"/>
<path opacity="0.2" d="M178.83 171.57C178.83 171.57 179.74 171.7 181.91 172.2C183.36 174.43 185.24 181.3 180.97 186.2C179.31 180.2 175.35 179.44 175.35 179.44L178.83 171.57Z" fill="black"/>
<path d="M162.51 170C162.51 170 160.51 170 158.07 170C156.62 172.23 161.61 178.41 169.39 184.81C171.26 178.98 175.39 179.33 175.39 179.33L162.51 170Z" fill="white"/>
<path d="M178.83 171.57C178.83 171.57 179.74 171.7 181.91 172.2C183.36 174.43 186.49 180.47 182.22 185.33C180.56 179.33 175.35 179.41 175.35 179.41L178.83 171.57Z" fill="white"/>
<path d="M165.72 152.05C166.3 157.39 166.49 167.05 162.51 170.29C162.51 170.29 164.58 176.29 175.35 179.41C181.83 175.67 178.83 171.7 178.83 171.7C173.1 169.8 173.63 165.47 175 161.47L165.72 152.05Z" fill="#FFC3BD"/>
<path opacity="0.2" d="M169.5 155.9L175 161.47C174.663 162.396 174.409 163.349 174.24 164.32C172.03 163.81 168.83 161.51 168.8 159.15C168.841 158.034 169.078 156.934 169.5 155.9Z" fill="black"/>
<path d="M177.88 130.71C179.63 128.78 183.1 131.24 184.38 135.97C186.3 142.97 181.18 143.47 178.5 139.97C175.82 136.47 176.42 132.32 177.88 130.71Z" fill="#263238"/>
<path d="M183.3 143C185.056 143.608 186.716 144.463 188.23 145.54C187.36 143.42 186.58 142.13 183.3 143Z" fill="#263238"/>
<path d="M184.31 143.33C185.732 143.047 187.186 142.966 188.63 143.09C187.21 142 186.18 141.46 184.31 143.33Z" fill="#263238"/>
<path d="M161 143.71C163.23 152.24 164 155.9 169.22 159.47C177.09 164.85 187.08 160.25 187.45 151.22C187.78 143.1 184.08 130.52 174.95 128.74C172.938 128.332 170.855 128.446 168.9 129.073C166.945 129.699 165.183 130.817 163.784 132.319C162.384 133.821 161.393 135.657 160.906 137.651C160.418 139.646 160.451 141.732 161 143.71Z" fill="#FFC3BD"/>
<path d="M165.12 132.46L162.65 135.33C161.909 136.178 160.863 136.7 159.74 136.782C158.617 136.864 157.507 136.501 156.65 135.77C155.8 135.03 155.277 133.986 155.193 132.862C155.108 131.739 155.47 130.628 156.2 129.77L158.67 126.91C159.411 126.063 160.455 125.541 161.578 125.457C162.7 125.373 163.811 125.733 164.67 126.46C165.517 127.201 166.039 128.245 166.123 129.368C166.207 130.49 165.847 131.601 165.12 132.46Z" fill="white"/>
<path d="M167.4 135.66L164.4 137.16C163.169 137.763 161.749 137.854 160.45 137.414C159.152 136.974 158.081 136.038 157.47 134.81C156.867 133.577 156.775 132.156 157.215 130.856C157.655 129.556 158.592 128.482 159.82 127.87L162.82 126.37C164.054 125.767 165.476 125.677 166.777 126.119C168.077 126.561 169.149 127.5 169.76 128.73C170.362 129.963 170.452 131.383 170.01 132.682C169.568 133.981 168.629 135.051 167.4 135.66Z" fill="#006763"/>
<path d="M163.56 150.09C163.56 150.09 169.72 148.68 167.1 139.67C167.002 139.323 166.985 138.959 167.05 138.604C167.115 138.25 167.26 137.915 167.474 137.626C167.689 137.336 167.966 137.099 168.286 136.934C168.606 136.768 168.96 136.678 169.32 136.67C176.26 136.48 182.75 135.03 181.83 131.01C180.68 125.93 163.39 122.01 160.25 132.18C154.12 133.61 153.89 145.69 163.56 150.09Z" fill="#263238"/>
<path d="M163.59 148.31C165.346 148.918 167.006 149.773 168.52 150.85C167.65 148.75 166.87 147.46 163.59 148.31Z" fill="#263238"/>
<path d="M164.6 148.66C166.021 148.377 167.476 148.296 168.92 148.42C167.51 147.35 166.48 146.8 164.6 148.66Z" fill="#263238"/>
<path d="M159.6 150.41C160.399 151.916 161.761 153.045 163.39 153.55C165.56 154.2 166.68 152.28 166.12 150.21C165.61 148.35 163.87 145.78 161.68 146.03C161.204 146.096 160.751 146.279 160.363 146.564C159.975 146.848 159.664 147.224 159.458 147.659C159.252 148.093 159.157 148.572 159.181 149.052C159.206 149.533 159.35 149.999 159.6 150.41Z" fill="#FFC3BD"/>
<path d="M175.46 143.42C175.6 144.12 176.09 144.62 176.54 144.53C176.99 144.44 177.26 143.79 177.13 143.09C177 142.39 176.5 141.89 176.04 141.98C175.58 142.07 175.32 142.71 175.46 143.42Z" fill="#263238"/>
<path d="M183.41 141.85C183.55 142.56 184.03 143.05 184.49 142.96C184.95 142.87 185.21 142.23 185.07 141.53C184.93 140.83 184.45 140.33 183.99 140.42C183.53 140.51 183.27 141.15 183.41 141.85Z" fill="#263238"/>
<path d="M183.8 140.5L185.39 139.68C185.39 139.68 184.78 141.17 183.8 140.5Z" fill="#263238"/>
<path d="M180.68 143.61C181.621 145.092 182.762 146.438 184.07 147.61C183.765 147.944 183.39 148.207 182.972 148.38C182.553 148.553 182.102 148.631 181.65 148.61L180.68 143.61Z" fill="#ED847E"/>
<path d="M178.4 151.92C176.92 151.939 175.489 151.392 174.4 150.39C174.368 150.356 174.349 150.312 174.349 150.265C174.349 150.218 174.368 150.174 174.4 150.14C174.434 150.108 174.478 150.089 174.525 150.089C174.572 150.089 174.616 150.108 174.65 150.14C175.323 150.733 176.127 151.159 176.996 151.384C177.864 151.608 178.774 151.624 179.65 151.43C179.695 151.422 179.741 151.432 179.779 151.459C179.816 151.485 179.842 151.525 179.85 151.57C179.858 151.615 179.848 151.661 179.821 151.699C179.795 151.736 179.755 151.762 179.71 151.77C179.28 151.867 178.841 151.917 178.4 151.92Z" fill="#263238"/>
<path d="M170.69 140.69C170.627 140.687 170.565 140.67 170.51 140.64C170.43 140.592 170.373 140.515 170.351 140.425C170.328 140.335 170.342 140.24 170.39 140.16C170.721 139.598 171.181 139.123 171.732 138.775C172.284 138.428 172.91 138.217 173.56 138.16C173.652 138.16 173.741 138.195 173.808 138.258C173.875 138.321 173.915 138.408 173.92 138.5C173.921 138.546 173.913 138.592 173.897 138.635C173.881 138.678 173.856 138.717 173.824 138.75C173.793 138.784 173.755 138.811 173.713 138.83C173.671 138.848 173.626 138.859 173.58 138.86C173.043 138.919 172.529 139.105 172.078 139.402C171.628 139.7 171.255 140.1 170.99 140.57C170.953 140.613 170.907 140.646 170.855 140.667C170.802 140.688 170.746 140.696 170.69 140.69Z" fill="#263238"/>
<path d="M185.62 137.87C185.564 137.885 185.506 137.885 185.45 137.87C184.984 137.595 184.459 137.434 183.919 137.399C183.379 137.364 182.838 137.457 182.34 137.67C182.251 137.715 182.148 137.723 182.053 137.692C181.959 137.661 181.88 137.594 181.835 137.505C181.79 137.416 181.782 137.313 181.813 137.218C181.844 137.124 181.911 137.045 182 137C182.599 136.729 183.254 136.606 183.911 136.643C184.567 136.679 185.205 136.874 185.77 137.21C185.81 137.232 185.845 137.261 185.873 137.297C185.901 137.333 185.922 137.374 185.934 137.417C185.946 137.461 185.95 137.507 185.944 137.552C185.938 137.597 185.923 137.641 185.9 137.68C185.875 137.734 185.835 137.78 185.786 137.814C185.737 137.847 185.679 137.867 185.62 137.87Z" fill="#263238"/>
<path d="M165.61 236.56L173.61 237.12L170 245.67C170 245.67 163.32 243.56 163.05 238.67L165.61 236.56Z" fill="#FFC3BD"/>
<path d="M176.68 241.96L172.81 247.8L170.01 245.67L173.64 237.12L176.68 241.96Z" fill="#FFC3BD"/>
<path d="M175.85 142.06L177.44 141.24C177.44 141.24 176.83 142.73 175.85 142.06Z" fill="#263238"/>
</svg>
